/* XPM */
static char * arcs_2_xpm[] = {
"20 20 131 2",
"  	c None",
". 	c #D0DAD4",
"+ 	c #C2D6D5",
"@ 	c #D5DDCB",
"# 	c #EAECC6",
"$ 	c #FAF9C2",
"% 	c #E8ECD6",
"& 	c #99B1ED",
"* 	c #2C61E8",
"= 	c #4E7AEA",
"- 	c #5D85EB",
"; 	c #6A8EEA",
"> 	c #7B9AE9",
", 	c #8CA7E4",
"' 	c #A3BADD",
") 	c #BDCCD7",
"! 	c #F9FBBD",
"~ 	c #EAE8D6",
"{ 	c #A3B8E3",
"] 	c #3063D6",
"^ 	c #406ED6",
"/ 	c #3E6CD6",
"( 	c #3667D6",
"_ 	c #3465D6",
": 	c #3468DE",
"< 	c #2D60E1",
"[ 	c #4475E6",
"} 	c #5982EB",
"| 	c #83A6FF",
"1 	c #F5ECB9",
"2 	c #4B77D9",
"3 	c #4E78D8",
"4 	c #3E6DD8",
"5 	c #6388DB",
"6 	c #3162D3",
"7 	c #295FDB",
"8 	c #81A5FF",
"9 	c #F8FBA9",
"0 	c #4471D8",
"a 	c #AFC3EB",
"b 	c #E6E6E6",
"c 	c #BECFEC",
"d 	c #4974D5",
"e 	c #F9FFB5",
"f 	c #3565D3",
"g 	c #7E9CE2",
"h 	c #A6BBEA",
"i 	c #3767D3",
"j 	c #4873D4",
"k 	c #2C61DA",
"l 	c #83B5FF",
"m 	c #FDDDC5",
"n 	c #7B9AE1",
"o 	c #C0CFF0",
"p 	c #4777D7",
"q 	c #4874D8",
"r 	c #7D9CFF",
"s 	c #E9EFB3",
"t 	c #A1B7E9",
"u 	c #4374D7",
"v 	c #B9C9EF",
"w 	c #A0B7E6",
"x 	c #92ACE6",
"y 	c #C3D1ED",
"z 	c #6E93DE",
"A 	c #4270DA",
"B 	c #BAC8E8",
"C 	c #2C5DCE",
"D 	c #A8BDE8",
"E 	c #8DA8E5",
"F 	c #2050BC",
"G 	c #527BDA",
"H 	c #9AB1E6",
"I 	c #3A6BDA",
"J 	c #7B99DF",
"K 	c #99B2E5",
"L 	c #86A4E2",
"M 	c #2B5BC9",
"N 	c #BBCCF1",
"O 	c #B9CAED",
"P 	c #2D60D3",
"Q 	c #A6BADE",
"R 	c #275ACD",
"S 	c #7596E1",
"T 	c #B9CAEB",
"U 	c #3E6DF2",
"V 	c #BED0CC",
"W 	c #275BD1",
"X 	c #C9D6EF",
"Y 	c #7F9EE3",
"Z 	c #3C68F8",
"` 	c #B6CCB8",
" .	c #3467DA",
"..	c #BECEEE",
"+.	c #3869F4",
"@.	c #BCCCC1",
"#.	c #89A7E3",
"$.	c #3A6DEE",
"%.	c #A9BDE5",
"&.	c #3065EC",
"*.	c #396CDF",
"=.	c #3064DA",
"-.	c #2658C8",
";.	c #3E69F6",
">.	c #BBCFC0",
",.	c #E2E6C2",
"'.	c #C5D3D9",
").	c #B2C5DE",
"!.	c #9BB3DF",
"~.	c #7092EA",
"{.	c #5F87EB",
"].	c #507CEC",
"^.	c #4573E9",
"/.	c #3A6DE0",
"(.	c #295ED7",
"_.	c #2A5AC6",
":.	c #B7CDB9",
"<.	c #F8F8CA",
"[.	c #F4F7C3",
"}.	c #F1F0C7",
"|.	c #CDD7D1",
"1.	c #B7C6DD",
"2.	c #9FB6DF",
"3.	c #7398EB",
"4.	c #547FEC",
"5.	c #2B62FF",
"6.	c #B8CAC4",
"7.	c #E2E6CA",
"8.	c #CBD9CB",
"9.	c #A8BCF6",
"0.	c #D0D9BF",
"  . + @ # $ $ %                         ",
"  & * = - ; > , ' ) . @ ! ~             ",
"  { ] ^ / ( _ ( : < [ } - | 1           ",
"  { ( 2 3 3 3 4 ^ 5 / 6 / 7 8 9         ",
"  { ( 2 3 3 0 0 a b c 2 ^ d < 8 e       ",
"  { ( 2 3 2 f g b b b h i 2 j k l m     ",
"  { ( 2 2 3 f n b b b o p q 3 p k r s   ",
"  { ( 2 3 2 q / a b b t / d 2 3 u : v   ",
"  { ( 2 2 3 u 2 w x y z 6 3 3 2 q A B   ",
"  { ( 2 j ( C D E F G H u 2 2 3 q ^ c   ",
"  { I ^ j 5 J K ^ 2 6 H L M q 3 j ^ N   ",
"  { ] 2 O b b z P 3 u G K 5 / ^ 2 ^ c   ",
"  Q R S b b b a ^ q q / a b T 2 / U V   ",
"  Q W z b b b X 2 u f Y b b b t _ Z `   ",
"  Q  ./ t b b t / q f g b b b ..u +.@.  ",
"  Q  .^ / g #.q u 2 u p O b b h ( $.V   ",
"  %.&.*.=.-.-._ u p 3 / 2 t t 3 ^ ;.>.  ",
"  ,.'.).!.L ~.{.].^./.I (.-._._ 0 Z :.  ",
"        b <.[.}.@ |.1.2.#.3.{.4.^.5.6.  ",
"                      b <.! ! 7.8.9.0.  "};
