/* XPM */
static char * noarcs_2_xpm[] = {
"20 20 103 2",
"  	c None",
". 	c #BDBFBE",
"+ 	c #B4B6B6",
"@ 	c #BEBFBD",
"# 	c #C5C5BF",
"$ 	c #CACAC2",
"% 	c #CDCCC5",
"& 	c #CBCCC8",
"* 	c #A6ABB2",
"= 	c #6E7482",
"- 	c #818895",
"; 	c #868D9A",
"> 	c #8D939F",
", 	c #949AA4",
"' 	c #9CA1A8",
") 	c #A5A8AD",
"! 	c #B1B4B5",
"~ 	c #BBBDBC",
"{ 	c #C2C3BF",
"] 	c #CBCBC1",
"^ 	c #CCCBC8",
"/ 	c #A8ACB2",
"( 	c #6D737F",
"_ 	c #757B87",
": 	c #747A86",
"< 	c #717783",
"[ 	c #6F7581",
"} 	c #707784",
"| 	c #737A87",
"1 	c #777E8B",
"2 	c #7D8391",
"3 	c #848B98",
"4 	c #888E9A",
"5 	c #A0A5B2",
"6 	c #C5C4BD",
"7 	c #7A808C",
"8 	c #7B818D",
"9 	c #787E8A",
"0 	c #707682",
"a 	c #6C727E",
"b 	c #9EA4B2",
"c 	c #C1C1B5",
"d 	c #6F7683",
"e 	c #9AA0AC",
"f 	c #C9CABC",
"g 	c #6E7480",
"h 	c #9FA7B3",
"i 	c #CFC9C5",
"j 	c #6C7380",
"k 	c #9BA1AF",
"l 	c #BFC0B6",
"m 	c #777D89",
"n 	c #6F757F",
"o 	c #707680",
"p 	c #B8BBC0",
"q 	c #777E89",
"r 	c #C1C4C7",
"s 	c #90959E",
"t 	c #B5B8BD",
"u 	c #A0A4AC",
"v 	c #CFCFCF",
"w 	c #8D929B",
"x 	c #B9BCC1",
"y 	c #737985",
"z 	c #A8ACB0",
"A 	c #C3C5C9",
"B 	c #B1B5BB",
"C 	c #7B8293",
"D 	c #AEB2B1",
"E 	c #707782",
"F 	c #7C828E",
"G 	c #7F8697",
"H 	c #ABADAB",
"I 	c #7D8495",
"J 	c #ADB1AE",
"K 	c #A7ABAF",
"L 	c #AEB0AF",
"M 	c #ACAFB4",
"N 	c #717887",
"O 	c #C0C1BB",
"P 	c #B6B9BA",
"Q 	c #AEB1B4",
"R 	c #A2A6AC",
"S 	c #989CA4",
"T 	c #9096A0",
"U 	c #898F9B",
"V 	c #7A8190",
"W 	c #7E8596",
"X 	c #ACAEAC",
"Y 	c #CECEC6",
"Z 	c #C8C8C2",
"` 	c #C0C1BD",
" .	c #B9BBBA",
"..	c #B0B3B6",
"+.	c #A3A7AD",
"@.	c #999DA5",
"#.	c #9399A3",
"$.	c #838A97",
"%.	c #767F92",
"&.	c #ABADAC",
"*.	c #BABCBA",
"=.	c #B0B4BC",
"-.	c #B6B7B5",
"  . + @ # $ % &                         ",
"  * = - ; > , ' ) ! ~ { ] ^             ",
"  / ( _ : < [ } | 1 2 3 4 5 6           ",
"  / [ 7 7 8 7 7 7 7 9 _ 0 a b c         ",
"  / [ 7 7 7 7 8 7 8 7 8 8 9 d e f       ",
"  / [ 7 7 8 8 8 8 7 8 7 8 8 9 g h i     ",
"  / 0 7 8 7 8 8 7 7 8 8 7 8 8 7 j k l   ",
"  / [ 7 7 8 8 m n o 0 8 8 7 8 8 9 0 p   ",
"  / [ 7 7 7 m q / r s 0 8 8 7 8 7 : t   ",
"  / [ 7 7 7 n u v v v w 0 7 8 7 7 : x   ",
"  / 0 7 8 7 n / v v v / n 7 7 8 9 y x   ",
"  z 0 7 7 7 0 w v v v u n 7 8 7 7 y x   ",
"  z 0 7 8 7 8 o s A B 9 _ 8 8 7 7 C D   ",
"  z } 7 7 8 8 8 0 E E _ F 8 7 8 7 G H   ",
"  / } 7 8 7 8 7 8 7 7 8 8 7 8 7 7 I J   ",
"  K [ 7 7 8 7 8 7 7 7 8 7 8 7 8 7 C L   ",
"  M N } [ [ 0 : _ 7 7 7 8 7 7 7 7 I J   ",
"  O P Q R S T U - V | [ [ 0 y m m W X   ",
"        v Y % Z `  ...+.@.#.U $.V %.&.  ",
"                      v Y $ Z # *.=.-.  "};
